<svg width="48" height="48" viewBox="0 0 48 48" fill="none" xmlns="http://www.w3.org/2000/svg">
<path d="M24 28.3872L34.4864 16.9032C34.939 16.466 35.5453 16.2241 36.1746 16.2296C36.8038 16.2351 37.4058 16.4875 37.8508 16.9324C38.2957 17.3774 38.5481 17.9794 38.5536 18.6086C38.5591 19.2379 38.3172 19.8442 37.88 20.2968L25.6968 33.48C25.4744 33.7036 25.21 33.8811 24.9188 34.0022C24.6276 34.1233 24.3154 34.1857 24 34.1857C23.6846 34.1857 23.3724 34.1233 23.0812 34.0022C22.79 33.8811 22.5256 33.7036 22.3032 33.48L12.12 23.2968C11.8908 23.0754 11.7079 22.8106 11.5822 22.5178C11.4564 22.225 11.3902 21.91 11.3874 21.5914C11.3846 21.2727 11.4454 20.9567 11.566 20.6617C11.6867 20.3668 11.8649 20.0988 12.0903 19.8735C12.3156 19.6481 12.5836 19.4699 12.8785 19.3492C13.1735 19.2286 13.4895 19.1678 13.8082 19.1706C14.1268 19.1734 14.4418 19.2396 14.7346 19.3654C15.0274 19.4911 15.2922 19.674 15.5136 19.9032L24 28.3872ZM24 48C37.2552 48 48 37.2552 48 24C48 10.7448 37.2552 0 24 0C10.7448 0 0 10.7448 0 24C0 37.2552 10.7448 48 24 48Z" fill="#6FCF97"/>
</svg>
