<svg width="48" height="48" viewBox="0 0 48 48" fill="none" xmlns="http://www.w3.org/2000/svg">
<path d="M27.3936 24L34.1832 17.2128C34.6335 16.7625 34.8865 16.1517 34.8865 15.5148C34.8865 14.8779 34.6335 14.2671 34.1832 13.8168C33.7329 13.3665 33.1221 13.1135 32.4852 13.1135C31.8483 13.1135 31.2375 13.3665 30.7872 13.8168L24 20.6064L17.2128 13.8168C16.7625 13.3665 16.1517 13.1135 15.5148 13.1135C14.8779 13.1135 14.2671 13.3665 13.8168 13.8168C13.3665 14.2671 13.1135 14.8779 13.1135 15.5148C13.1135 16.1517 13.3665 16.7625 13.8168 17.2128L20.6064 24L13.8168 30.7872C13.3665 31.2375 13.1135 31.8483 13.1135 32.4852C13.1135 33.1221 13.3665 33.7329 13.8168 34.1832C14.2671 34.6335 14.8779 34.8865 15.5148 34.8865C16.1517 34.8865 16.7625 34.6335 17.2128 34.1832L24 27.3936L30.7872 34.1832C31.2375 34.6335 31.8483 34.8865 32.4852 34.8865C33.1221 34.8865 33.7329 34.6335 34.1832 34.1832C34.6335 33.7329 34.8865 33.1221 34.8865 32.4852C34.8865 31.8483 34.6335 31.2375 34.1832 30.7872L27.3936 24ZM24 48C10.7448 48 0 37.2552 0 24C0 10.7448 10.7448 0 24 0C37.2552 0 48 10.7448 48 24C48 37.2552 37.2552 48 24 48Z" fill="#EB5757"/>
</svg>
