<svg width="32" height="25" viewBox="0 0 32 25" fill="none" xmlns="http://www.w3.org/2000/svg">
<path d="M2.28571 0.966614H13.7143C14.3205 0.966614 14.9019 1.21525 15.3305 1.65782C15.7592 2.1004 16 2.70066 16 3.32655C16 3.95245 15.7592 4.55271 15.3305 4.99528C14.9019 5.43786 14.3205 5.6865 13.7143 5.6865H2.28571C1.67951 5.6865 1.09812 5.43786 0.66947 4.99528C0.240816 4.55271 0 3.95245 0 3.32655C0 2.70066 0.240816 2.1004 0.66947 1.65782C1.09812 1.21525 1.67951 0.966614 2.28571 0.966614V0.966614ZM18.2857 19.8461H29.7143C30.3205 19.8461 30.9019 20.0948 31.3305 20.5374C31.7592 20.9799 32 21.5802 32 22.2061C32 22.832 31.7592 23.4322 31.3305 23.8748C30.9019 24.3174 30.3205 24.566 29.7143 24.566H18.2857C17.6795 24.566 17.0981 24.3174 16.6695 23.8748C16.2408 23.4322 16 22.832 16 22.2061C16 21.5802 16.2408 20.9799 16.6695 20.5374C17.0981 20.0948 17.6795 19.8461 18.2857 19.8461ZM2.28571 10.4064H29.7143C30.3205 10.4064 30.9019 10.655 31.3305 11.0976C31.7592 11.5402 32 12.1404 32 12.7663C32 13.3922 31.7592 13.9925 31.3305 14.435C30.9019 14.8776 30.3205 15.1263 29.7143 15.1263H2.28571C1.67951 15.1263 1.09812 14.8776 0.66947 14.435C0.240816 13.9925 0 13.3922 0 12.7663C0 12.1404 0.240816 11.5402 0.66947 11.0976C1.09812 10.655 1.67951 10.4064 2.28571 10.4064Z" fill="#AF00DB"/>
</svg>
