<svg width="137" height="28" viewBox="0 0 137 28" fill="none" xmlns="http://www.w3.org/2000/svg">
<path d="M1.07812 9.50391C1.07812 6.48828 1.88672 4.16406 3.50391 2.53125C4.91016 1.10938 6.69922 0.398438 8.87109 0.398438C11.7773 0.398438 13.9023 1.35156 15.2461 3.25781C15.9883 4.32812 16.3867 5.40234 16.4414 6.48047H12.832C12.5977 5.65234 12.2969 5.02734 11.9297 4.60547C11.2734 3.85547 10.3008 3.48047 9.01172 3.48047C7.69922 3.48047 6.66406 4.01172 5.90625 5.07422C5.14844 6.12891 4.76953 7.625 4.76953 9.5625C4.76953 11.5 5.16797 12.9531 5.96484 13.9219C6.76953 14.8828 7.78906 15.3633 9.02344 15.3633C10.2891 15.3633 11.2539 14.9492 11.918 14.1211C12.2852 13.6758 12.5898 13.0078 12.832 12.1172H16.4062C16.0938 14 15.293 15.5312 14.0039 16.7109C12.7227 17.8906 11.0781 18.4805 9.07031 18.4805C6.58594 18.4805 4.63281 17.6836 3.21094 16.0898C1.78906 14.4883 1.07812 12.293 1.07812 9.50391ZM24.6328 15.6445C25.6094 15.6445 26.3594 15.2969 26.8828 14.6016C27.4062 13.9062 27.668 12.918 27.668 11.6367C27.668 10.3555 27.4062 9.37109 26.8828 8.68359C26.3594 7.98828 25.6094 7.64062 24.6328 7.64062C23.6562 7.64062 22.9023 7.98828 22.3711 8.68359C21.8477 9.37109 21.5859 10.3555 21.5859 11.6367C21.5859 12.918 21.8477 13.9062 22.3711 14.6016C22.9023 15.2969 23.6562 15.6445 24.6328 15.6445ZM31.1719 11.6367C31.1719 13.5117 30.6328 15.1172 29.5547 16.4531C28.4766 17.7812 26.8398 18.4453 24.6445 18.4453C22.4492 18.4453 20.8125 17.7812 19.7344 16.4531C18.6562 15.1172 18.1172 13.5117 18.1172 11.6367C18.1172 9.79297 18.6562 8.19531 19.7344 6.84375C20.8125 5.49219 22.4492 4.81641 24.6445 4.81641C26.8398 4.81641 28.4766 5.49219 29.5547 6.84375C30.6328 8.19531 31.1719 9.79297 31.1719 11.6367ZM39.3047 15.6445C40.2812 15.6445 41.0312 15.2969 41.5547 14.6016C42.0781 13.9062 42.3398 12.918 42.3398 11.6367C42.3398 10.3555 42.0781 9.37109 41.5547 8.68359C41.0312 7.98828 40.2812 7.64062 39.3047 7.64062C38.3281 7.64062 37.5742 7.98828 37.043 8.68359C36.5195 9.37109 36.2578 10.3555 36.2578 11.6367C36.2578 12.918 36.5195 13.9062 37.043 14.6016C37.5742 15.2969 38.3281 15.6445 39.3047 15.6445ZM45.8438 11.6367C45.8438 13.5117 45.3047 15.1172 44.2266 16.4531C43.1484 17.7812 41.5117 18.4453 39.3164 18.4453C37.1211 18.4453 35.4844 17.7812 34.4062 16.4531C33.3281 15.1172 32.7891 13.5117 32.7891 11.6367C32.7891 9.79297 33.3281 8.19531 34.4062 6.84375C35.4844 5.49219 37.1211 4.81641 39.3164 4.81641C41.5117 4.81641 43.1484 5.49219 44.2266 6.84375C45.3047 8.19531 45.8438 9.79297 45.8438 11.6367ZM51.6562 18H48.3164V0.726562H51.6562V18ZM63.7266 11.6133C63.7266 10.6289 63.5 9.75781 63.0469 9C62.6016 8.24219 61.875 7.86328 60.8672 7.86328C59.6562 7.86328 58.8242 8.4375 58.3711 9.58594C58.1367 10.1953 58.0195 10.9688 58.0195 11.9062C58.0195 13.3906 58.4141 14.4336 59.2031 15.0352C59.6719 15.3867 60.2266 15.5625 60.8672 15.5625C61.7969 15.5625 62.5039 15.2031 62.9883 14.4844C63.4805 13.7656 63.7266 12.8086 63.7266 11.6133ZM61.8281 4.94531C63.3203 4.94531 64.582 5.49609 65.6133 6.59766C66.6523 7.69922 67.1719 9.31641 67.1719 11.4492C67.1719 13.6992 66.6641 15.4141 65.6484 16.5938C64.6406 17.7734 63.3398 18.3633 61.7461 18.3633C60.7305 18.3633 59.8867 18.1094 59.2148 17.6016C58.8477 17.3203 58.4883 16.9102 58.1367 16.3711V23.0273H54.832V5.22656H58.0312V7.11328C58.3906 6.55859 58.7734 6.12109 59.1797 5.80078C59.9219 5.23047 60.8047 4.94531 61.8281 4.94531ZM73.0078 18H69.668V0.726562H73.0078V18ZM79.7109 3.70312H76.3242V0.621094H79.7109V3.70312ZM76.3242 5.22656H79.7109V18H76.3242V5.22656ZM90 11.7891C89.7891 11.9219 89.5742 12.0312 89.3555 12.1172C89.1445 12.1953 88.8516 12.2695 88.4766 12.3398L87.7266 12.4805C87.0234 12.6055 86.5195 12.7578 86.2148 12.9375C85.6992 13.2422 85.4414 13.7148 85.4414 14.3555C85.4414 14.9258 85.5977 15.3398 85.9102 15.5977C86.2305 15.8477 86.6172 15.9727 87.0703 15.9727C87.7891 15.9727 88.4492 15.7617 89.0508 15.3398C89.6602 14.918 89.9766 14.1484 90 13.0312V11.7891ZM87.9727 10.2305C88.5898 10.1523 89.0312 10.0547 89.2969 9.9375C89.7734 9.73438 90.0117 9.41797 90.0117 8.98828C90.0117 8.46484 89.8281 8.10547 89.4609 7.91016C89.1016 7.70703 88.5703 7.60547 87.8672 7.60547C87.0781 7.60547 86.5195 7.80078 86.1914 8.19141C85.957 8.48047 85.8008 8.87109 85.7227 9.36328H82.5C82.5703 8.24609 82.8828 7.32812 83.4375 6.60938C84.3203 5.48438 85.8359 4.92188 87.9844 4.92188C89.3828 4.92188 90.625 5.19922 91.7109 5.75391C92.7969 6.30859 93.3398 7.35547 93.3398 8.89453V14.7539C93.3398 15.1602 93.3477 15.6523 93.3633 16.2305C93.3867 16.668 93.4531 16.9648 93.5625 17.1211C93.6719 17.2773 93.8359 17.4062 94.0547 17.5078V18H90.4219C90.3203 17.7422 90.25 17.5 90.2109 17.2734C90.1719 17.0469 90.1406 16.7891 90.1172 16.5C89.6562 17 89.125 17.4258 88.5234 17.7773C87.8047 18.1914 86.9922 18.3984 86.0859 18.3984C84.9297 18.3984 83.9727 18.0703 83.2148 17.4141C82.4648 16.75 82.0898 15.8125 82.0898 14.6016C82.0898 13.0312 82.6953 11.8945 83.9062 11.1914C84.5703 10.8086 85.5469 10.5352 86.8359 10.3711L87.9727 10.2305ZM103.395 4.92188C104.715 4.92188 105.793 5.26953 106.629 5.96484C107.473 6.65234 107.895 7.79688 107.895 9.39844V18H104.473V10.2305C104.473 9.55859 104.383 9.04297 104.203 8.68359C103.875 8.02734 103.25 7.69922 102.328 7.69922C101.195 7.69922 100.418 8.17969 99.9961 9.14062C99.7773 9.64844 99.668 10.2969 99.668 11.0859V18H96.3398V5.25H99.5625V7.11328C99.9922 6.45703 100.398 5.98438 100.781 5.69531C101.469 5.17969 102.34 4.92188 103.395 4.92188ZM118.617 9.80859C118.555 9.33203 118.395 8.90234 118.137 8.51953C117.762 8.00391 117.18 7.74609 116.391 7.74609C115.266 7.74609 114.496 8.30469 114.082 9.42188C113.863 10.0156 113.754 10.8047 113.754 11.7891C113.754 12.7266 113.863 13.4805 114.082 14.0508C114.48 15.1133 115.23 15.6445 116.332 15.6445C117.113 15.6445 117.668 15.4336 117.996 15.0117C118.324 14.5898 118.523 14.043 118.594 13.3711H122.004C121.926 14.3867 121.559 15.3477 120.902 16.2539C119.855 17.7148 118.305 18.4453 116.25 18.4453C114.195 18.4453 112.684 17.8359 111.715 16.6172C110.746 15.3984 110.262 13.8164 110.262 11.8711C110.262 9.67578 110.797 7.96875 111.867 6.75C112.938 5.53125 114.414 4.92188 116.297 4.92188C117.898 4.92188 119.207 5.28125 120.223 6C121.246 6.71875 121.852 7.98828 122.039 9.80859H118.617ZM129.387 7.64062C128.613 7.64062 128.012 7.88281 127.582 8.36719C127.16 8.85156 126.895 9.50781 126.785 10.3359H131.977C131.922 9.45312 131.652 8.78516 131.168 8.33203C130.691 7.87109 130.098 7.64062 129.387 7.64062ZM129.387 4.88672C130.449 4.88672 131.406 5.08594 132.258 5.48438C133.109 5.88281 133.812 6.51172 134.367 7.37109C134.867 8.12891 135.191 9.00781 135.34 10.0078C135.426 10.5938 135.461 11.4375 135.445 12.5391H126.703C126.75 13.8203 127.152 14.7188 127.91 15.2344C128.371 15.5547 128.926 15.7148 129.574 15.7148C130.262 15.7148 130.82 15.5195 131.25 15.1289C131.484 14.918 131.691 14.625 131.871 14.25H135.281C135.195 15.0078 134.801 15.7773 134.098 16.5586C133.004 17.8008 131.473 18.4219 129.504 18.4219C127.879 18.4219 126.445 17.8984 125.203 16.8516C123.961 15.8047 123.34 14.1016 123.34 11.7422C123.34 9.53125 123.898 7.83594 125.016 6.65625C126.141 5.47656 127.598 4.88672 129.387 4.88672Z" fill="white"/>
<path fill-rule="evenodd" clip-rule="evenodd" d="M18.7667 21.7766C19.2383 21.1068 20.1727 20.9397 20.8538 21.4034C22.8395 22.7551 26.459 24.4268 30.6985 24.9122C34.9031 25.3937 39.665 24.7069 44.1 21.4361C44.7627 20.9474 45.7029 21.0795 46.2 21.7311C46.6971 22.3828 46.5627 23.3073 45.9 23.7961C40.735 27.6052 35.1636 28.3934 30.3515 27.8423C25.5743 27.2953 21.4939 25.427 19.1462 23.8288C18.4651 23.3651 18.2952 22.4463 18.7667 21.7766Z" fill="white"/>
</svg>
