<svg width="22" height="28" viewBox="0 0 22 28" fill="none" xmlns="http://www.w3.org/2000/svg">
<path d="M5.55343 13.8627C5.74663 13.7905 5.95439 13.7529 6.16444 13.7523C6.3745 13.7516 6.58257 13.7878 6.77636 13.8588C6.97015 13.9298 7.14573 14.0341 7.29271 14.1656C7.4397 14.297 7.55511 14.4529 7.63213 14.6241C7.70914 14.7953 7.74619 14.9783 7.74109 15.1623C7.736 15.3462 7.68885 15.5274 7.60244 15.6952C7.51604 15.8629 7.39212 16.0137 7.23803 16.1388C7.08393 16.2638 6.90278 16.3606 6.70529 16.4232C5.65485 16.7858 4.7533 17.4169 4.11794 18.2345C3.48257 19.0521 3.14281 20.0183 3.14286 21.0074V23.4027C3.14286 23.7678 3.30842 24.118 3.60312 24.3762C3.89782 24.6343 4.29752 24.7794 4.71429 24.7794H17.2857C17.7025 24.7794 18.1022 24.6343 18.3969 24.3762C18.6916 24.118 18.8571 23.7678 18.8571 23.4027V21.1354C18.8573 20.1146 18.5034 19.1179 17.8422 18.2773C17.181 17.4367 16.2438 16.7921 15.1549 16.4287C14.9561 16.3683 14.7733 16.2736 14.6171 16.1501C14.461 16.0266 14.3347 15.877 14.2458 15.7099C14.1569 15.5429 14.1072 15.362 14.0996 15.1778C14.092 14.9937 14.1267 14.8101 14.2017 14.6379C14.2766 14.4657 14.3902 14.3084 14.5358 14.1754C14.6814 14.0424 14.8559 13.9364 15.0492 13.8635C15.2424 13.7907 15.4504 13.7527 15.6607 13.7516C15.8711 13.7505 16.0795 13.7864 16.2737 13.8572C17.9577 14.4191 19.407 15.416 20.4296 16.7158C21.4522 18.0155 21.9999 19.5568 22 21.1354V23.4027C22 24.4981 21.5033 25.5485 20.6192 26.323C19.7351 27.0975 18.536 27.5326 17.2857 27.5326H4.71429C3.46398 27.5326 2.26488 27.0975 1.38078 26.323C0.496682 25.5485 0 24.4981 0 23.4027L0 21.0074C0.00021623 19.4658 0.530006 17.9599 1.52045 16.6857C2.5109 15.4114 3.91616 14.4278 5.55343 13.8627ZM11 0C12.6671 0 14.2659 0.58015 15.4447 1.61282C16.6235 2.6455 17.2857 4.04611 17.2857 5.50653V8.25979C17.2857 9.72021 16.6235 11.1208 15.4447 12.1535C14.2659 13.1862 12.6671 13.7663 11 13.7663C9.33292 13.7663 7.73413 13.1862 6.55533 12.1535C5.37653 11.1208 4.71429 9.72021 4.71429 8.25979V5.50653C4.71429 4.04611 5.37653 2.6455 6.55533 1.61282C7.73413 0.58015 9.33292 0 11 0V0ZM11 2.75326C10.1665 2.75326 9.36706 3.04334 8.77766 3.55968C8.18826 4.07601 7.85714 4.77632 7.85714 5.50653V8.25979C7.85714 8.99 8.18826 9.69031 8.77766 10.2066C9.36706 10.723 10.1665 11.0131 11 11.0131C11.8335 11.0131 12.6329 10.723 13.2223 10.2066C13.8117 9.69031 14.1429 8.99 14.1429 8.25979V5.50653C14.1429 4.77632 13.8117 4.07601 13.2223 3.55968C12.6329 3.04334 11.8335 2.75326 11 2.75326Z" fill="#AF00DB"/>
</svg>
