<svg width="272" height="79" viewBox="0 0 272 79" fill="none" xmlns="http://www.w3.org/2000/svg">
<path d="M150 61.8084C150 59.0704 150.734 56.9602 152.202 55.4777C153.479 54.1867 155.104 53.5412 157.075 53.5412C159.714 53.5412 161.644 54.4066 162.864 56.1374C163.537 57.1091 163.899 58.0844 163.949 59.0633H160.672C160.459 58.3114 160.186 57.744 159.852 57.3609C159.257 56.68 158.374 56.3395 157.203 56.3395C156.011 56.3395 155.072 56.8219 154.384 57.7865C153.696 58.7441 153.352 60.1025 153.352 61.8616C153.352 63.6207 153.713 64.94 154.437 65.8196C155.167 66.6921 156.093 67.1283 157.214 67.1283C158.363 67.1283 159.239 66.7524 159.842 66.0005C160.175 65.5962 160.452 64.9897 160.672 64.1811H163.917C163.633 65.8905 162.906 67.2808 161.736 68.3519C160.572 69.423 159.079 69.9585 157.256 69.9585C155.001 69.9585 153.227 69.235 151.936 67.788C150.645 66.3339 150 64.3407 150 61.8084Z" fill="white"/>
<path d="M171.386 67.3837C172.273 67.3837 172.954 67.068 173.429 66.4367C173.904 65.8054 174.142 64.9081 174.142 63.7448C174.142 62.5815 173.904 61.6878 173.429 61.0636C172.954 60.4323 172.273 60.1167 171.386 60.1167C170.499 60.1167 169.815 60.4323 169.333 61.0636C168.857 61.6878 168.62 62.5815 168.62 63.7448C168.62 64.9081 168.857 65.8054 169.333 66.4367C169.815 67.068 170.499 67.3837 171.386 67.3837ZM177.323 63.7448C177.323 65.4472 176.834 66.9049 175.855 68.1178C174.876 69.3236 173.39 69.9266 171.397 69.9266C169.403 69.9266 167.917 69.3236 166.939 68.1178C165.96 66.9049 165.47 65.4472 165.47 63.7448C165.47 62.0708 165.96 60.6203 166.939 59.3931C167.917 58.166 169.403 57.5525 171.397 57.5525C173.39 57.5525 174.876 58.166 175.855 59.3931C176.834 60.6203 177.323 62.0708 177.323 63.7448Z" fill="white"/>
<path d="M184.707 67.3837C185.594 67.3837 186.275 67.068 186.75 66.4367C187.225 65.8054 187.463 64.9081 187.463 63.7448C187.463 62.5815 187.225 61.6878 186.75 61.0636C186.275 60.4323 185.594 60.1167 184.707 60.1167C183.82 60.1167 183.136 60.4323 182.654 61.0636C182.178 61.6878 181.941 62.5815 181.941 63.7448C181.941 64.9081 182.178 65.8054 182.654 66.4367C183.136 67.068 183.82 67.3837 184.707 67.3837ZM190.644 63.7448C190.644 65.4472 190.155 66.9049 189.176 68.1178C188.197 69.3236 186.711 69.9266 184.718 69.9266C182.725 69.9266 181.239 69.3236 180.26 68.1178C179.281 66.9049 178.791 65.4472 178.791 63.7448C178.791 62.0708 179.281 60.6203 180.26 59.3931C181.239 58.166 182.725 57.5525 184.718 57.5525C186.711 57.5525 188.197 58.166 189.176 59.3931C190.155 60.6203 190.644 62.0708 190.644 63.7448Z" fill="white"/>
<path d="M195.921 69.5223H192.889V53.8392H195.921V69.5223Z" fill="white"/>
<path d="M206.88 63.7236C206.88 62.8298 206.675 62.0389 206.263 61.3509C205.859 60.6628 205.199 60.3188 204.284 60.3188C203.185 60.3188 202.429 60.8402 202.018 61.8829C201.805 62.4361 201.699 63.1384 201.699 63.9895C201.699 65.3373 202.057 66.2842 202.774 66.8304C203.199 67.1496 203.703 67.3092 204.284 67.3092C205.128 67.3092 205.77 66.9829 206.21 66.3303C206.657 65.6777 206.88 64.8088 206.88 63.7236ZM205.157 57.6695C206.512 57.6695 207.657 58.1696 208.593 59.1697C209.537 60.1699 210.009 61.6381 210.009 63.5746C210.009 65.6174 209.548 67.1744 208.625 68.2455C207.71 69.3166 206.529 69.8521 205.082 69.8521C204.16 69.8521 203.394 69.6216 202.784 69.1605C202.451 68.9051 202.124 68.5328 201.805 68.0433V74.0867H198.805V57.9249H201.71V59.6379C202.036 59.1342 202.383 58.737 202.752 58.4462C203.426 57.9284 204.228 57.6695 205.157 57.6695Z" fill="white"/>
<path d="M215.307 69.5223H212.275V53.8392H215.307V69.5223Z" fill="white"/>
<path d="M221.393 56.5417H218.318V53.7434H221.393V56.5417ZM218.318 57.9249H221.393V69.5223H218.318V57.9249Z" fill="white"/>
<path d="M230.735 63.8832C230.543 64.0037 230.348 64.103 230.15 64.1811C229.958 64.252 229.692 64.3194 229.352 64.3832L228.671 64.5109C228.032 64.6244 227.575 64.7627 227.298 64.9259C226.83 65.2025 226.596 65.6316 226.596 66.2133C226.596 66.7311 226.738 67.107 227.022 67.3411C227.312 67.5681 227.664 67.6816 228.075 67.6816C228.728 67.6816 229.327 67.4901 229.873 67.107C230.426 66.724 230.714 66.0253 230.735 65.011V63.8832ZM228.894 62.4681C229.455 62.3971 229.855 62.3085 230.097 62.2021C230.529 62.0176 230.746 61.7304 230.746 61.3402C230.746 60.865 230.579 60.5387 230.246 60.3614C229.919 60.1769 229.437 60.0847 228.799 60.0847C228.082 60.0847 227.575 60.2621 227.277 60.6167C227.064 60.8792 226.922 61.2338 226.851 61.6807H223.925C223.989 60.6664 224.273 59.8329 224.777 59.1803C225.578 58.1589 226.954 57.6482 228.905 57.6482C230.175 57.6482 231.302 57.9 232.288 58.4036C233.274 58.9073 233.767 59.8578 233.767 61.2551V66.575C233.767 66.9439 233.774 67.3907 233.789 67.9156C233.81 68.3129 233.87 68.5824 233.969 68.7243C234.069 68.8661 234.218 68.9832 234.416 69.0754V69.5223H231.118C231.026 69.2882 230.962 69.0683 230.926 68.8626C230.891 68.6569 230.863 68.4228 230.841 68.1604C230.423 68.6143 229.941 69.0009 229.394 69.3201C228.742 69.696 228.004 69.884 227.181 69.884C226.131 69.884 225.263 69.5861 224.575 68.9903C223.894 68.3873 223.553 67.5362 223.553 66.4367C223.553 65.011 224.103 63.9789 225.202 63.3405C225.805 62.993 226.692 62.7447 227.862 62.5957L228.894 62.4681Z" fill="white"/>
<path d="M242.896 57.6482C244.095 57.6482 245.074 57.9639 245.833 58.5952C246.599 59.2194 246.982 60.2585 246.982 61.7126V69.5223H243.875V62.4681C243.875 61.858 243.794 61.3899 243.63 61.0636C243.333 60.4678 242.765 60.1699 241.928 60.1699C240.9 60.1699 240.194 60.6061 239.811 61.4786C239.612 61.9396 239.513 62.5283 239.513 63.2448V69.5223H236.491V57.9461H239.417V59.6379C239.807 59.042 240.176 58.6129 240.524 58.3504C241.148 57.8823 241.939 57.6482 242.896 57.6482Z" fill="white"/>
<path d="M256.717 62.085C256.661 61.6523 256.515 61.2622 256.281 60.9146C255.941 60.4465 255.412 60.2124 254.696 60.2124C253.674 60.2124 252.976 60.7196 252.6 61.7339C252.401 62.273 252.302 62.9894 252.302 63.8832C252.302 64.7343 252.401 65.4188 252.6 65.9366C252.962 66.9013 253.643 67.3837 254.643 67.3837C255.352 67.3837 255.856 67.1921 256.154 66.8091C256.451 66.4261 256.632 65.9295 256.696 65.3195H259.792C259.721 66.2416 259.388 67.1141 258.792 67.9369C257.842 69.2634 256.434 69.9266 254.568 69.9266C252.703 69.9266 251.33 69.3733 250.451 68.2668C249.571 67.1602 249.131 65.7238 249.131 63.9576C249.131 61.9644 249.617 60.4146 250.589 59.308C251.561 58.2015 252.901 57.6482 254.611 57.6482C256.065 57.6482 257.253 57.9745 258.175 58.6271C259.104 59.2797 259.654 60.4323 259.824 62.085H256.717Z" fill="white"/>
<path d="M266.495 60.1167C265.793 60.1167 265.247 60.3365 264.857 60.7763C264.474 61.2161 264.233 61.8119 264.133 62.5638H268.847C268.797 61.7623 268.552 61.1558 268.113 60.7444C267.68 60.3259 267.141 60.1167 266.495 60.1167ZM266.495 57.6163C267.46 57.6163 268.329 57.7972 269.102 58.1589C269.875 58.5207 270.514 59.0917 271.017 59.8719C271.471 60.56 271.766 61.358 271.9 62.2659C271.978 62.7979 272.01 63.564 271.996 64.5641H264.059C264.101 65.7274 264.467 66.5431 265.155 67.0113C265.573 67.3021 266.077 67.4475 266.666 67.4475C267.29 67.4475 267.797 67.2702 268.187 66.9155C268.4 66.724 268.588 66.458 268.751 66.1175H271.847C271.769 66.8056 271.411 67.5042 270.773 68.2136C269.78 69.3414 268.389 69.9053 266.602 69.9053C265.126 69.9053 263.825 69.43 262.697 68.4796C261.569 67.5291 261.005 65.9827 261.005 63.8406C261.005 61.8332 261.512 60.294 262.527 59.2229C263.548 58.1518 264.871 57.6163 266.495 57.6163Z" fill="white"/>
<path fill-rule="evenodd" clip-rule="evenodd" d="M151.06 72.9511C151.488 72.343 152.337 72.1913 152.955 72.6123C154.758 73.8396 158.044 75.3573 161.893 75.7981C165.711 76.2352 170.034 75.6116 174.061 72.642C174.663 72.1983 175.516 72.3182 175.968 72.9099C176.419 73.5016 176.297 74.3409 175.695 74.7847C171.006 78.2431 165.947 78.9587 161.578 78.4584C157.241 77.9618 153.536 76.2655 151.405 74.8144C150.786 74.3934 150.632 73.5592 151.06 72.9511Z" fill="white"/>
<path d="M7.88281 32.3359C8.10156 33.9141 8.53125 35.0938 9.17188 35.875C10.3438 37.2969 12.3516 38.0078 15.1953 38.0078C16.8984 38.0078 18.2812 37.8203 19.3438 37.4453C21.3594 36.7266 22.3672 35.3906 22.3672 33.4375C22.3672 32.2969 21.8672 31.4141 20.8672 30.7891C19.8672 30.1797 18.2969 29.6406 16.1562 29.1719L12.5 28.3516C8.90625 27.5391 6.42188 26.6562 5.04688 25.7031C2.71875 24.1094 1.55469 21.6172 1.55469 18.2266C1.55469 15.1328 2.67969 12.5625 4.92969 10.5156C7.17969 8.46875 10.4844 7.44531 14.8438 7.44531C18.4844 7.44531 21.5859 8.41406 24.1484 10.3516C26.7266 12.2734 28.0781 15.0703 28.2031 18.7422H21.2656C21.1406 16.6641 20.2344 15.1875 18.5469 14.3125C17.4219 13.7344 16.0234 13.4453 14.3516 13.4453C12.4922 13.4453 11.0078 13.8203 9.89844 14.5703C8.78906 15.3203 8.23438 16.3672 8.23438 17.7109C8.23438 18.9453 8.78125 19.8672 9.875 20.4766C10.5781 20.8828 12.0781 21.3594 14.375 21.9062L20.3281 23.3359C22.9375 23.9609 24.9062 24.7969 26.2344 25.8438C28.2969 27.4688 29.3281 29.8203 29.3281 32.8984C29.3281 36.0547 28.1172 38.6797 25.6953 40.7734C23.2891 42.8516 19.8828 43.8906 15.4766 43.8906C10.9766 43.8906 7.4375 42.8672 4.85938 40.8203C2.28125 38.7578 0.992188 35.9297 0.992188 32.3359H7.88281Z" fill="white"/>
<path d="M48.2188 30.5781C47.7969 30.8438 47.3672 31.0625 46.9297 31.2344C46.5078 31.3906 45.9219 31.5391 45.1719 31.6797L43.6719 31.9609C42.2656 32.2109 41.2578 32.5156 40.6484 32.875C39.6172 33.4844 39.1016 34.4297 39.1016 35.7109C39.1016 36.8516 39.4141 37.6797 40.0391 38.1953C40.6797 38.6953 41.4531 38.9453 42.3594 38.9453C43.7969 38.9453 45.1172 38.5234 46.3203 37.6797C47.5391 36.8359 48.1719 35.2969 48.2188 33.0625V30.5781ZM44.1641 27.4609C45.3984 27.3047 46.2812 27.1094 46.8125 26.875C47.7656 26.4688 48.2422 25.8359 48.2422 24.9766C48.2422 23.9297 47.875 23.2109 47.1406 22.8203C46.4219 22.4141 45.3594 22.2109 43.9531 22.2109C42.375 22.2109 41.2578 22.6016 40.6016 23.3828C40.1328 23.9609 39.8203 24.7422 39.6641 25.7266H33.2188C33.3594 23.4922 33.9844 21.6562 35.0938 20.2188C36.8594 17.9688 39.8906 16.8438 44.1875 16.8438C46.9844 16.8438 49.4688 17.3984 51.6406 18.5078C53.8125 19.6172 54.8984 21.7109 54.8984 24.7891V36.5078C54.8984 37.3203 54.9141 38.3047 54.9453 39.4609C54.9922 40.3359 55.125 40.9297 55.3438 41.2422C55.5625 41.5547 55.8906 41.8125 56.3281 42.0156V43H49.0625C48.8594 42.4844 48.7188 42 48.6406 41.5469C48.5625 41.0938 48.5 40.5781 48.4531 40C47.5312 41 46.4688 41.8516 45.2656 42.5547C43.8281 43.3828 42.2031 43.7969 40.3906 43.7969C38.0781 43.7969 36.1641 43.1406 34.6484 41.8281C33.1484 40.5 32.3984 38.625 32.3984 36.2031C32.3984 33.0625 33.6094 30.7891 36.0312 29.3828C37.3594 28.6172 39.3125 28.0703 41.8906 27.7422L44.1641 27.4609Z" fill="white"/>
<path d="M75.0078 16.8438C77.6484 16.8438 79.8047 17.5391 81.4766 18.9297C83.1641 20.3047 84.0078 22.5938 84.0078 25.7969V43H77.1641V27.4609C77.1641 26.1172 76.9844 25.0859 76.625 24.3672C75.9688 23.0547 74.7188 22.3984 72.875 22.3984C70.6094 22.3984 69.0547 23.3594 68.2109 25.2812C67.7734 26.2969 67.5547 27.5938 67.5547 29.1719V43H60.8984V17.5H67.3438V21.2266C68.2031 19.9141 69.0156 18.9688 69.7812 18.3906C71.1562 17.3594 72.8984 16.8438 75.0078 16.8438Z" fill="white"/>
<path d="M87.5703 22.4453V17.6875H91.1328V10.5625H97.7422V17.6875H101.891V22.4453H97.7422V35.9453C97.7422 36.9922 97.875 37.6484 98.1406 37.9141C98.4062 38.1641 99.2188 38.2891 100.578 38.2891C100.781 38.2891 100.992 38.2891 101.211 38.2891C101.445 38.2734 101.672 38.2578 101.891 38.2422V43.2344L98.7266 43.3516C95.5703 43.4609 93.4141 42.9141 92.2578 41.7109C91.5078 40.9453 91.1328 39.7656 91.1328 38.1719V22.4453H87.5703Z" fill="white"/>
<path d="M120.266 30.5781C119.844 30.8438 119.414 31.0625 118.977 31.2344C118.555 31.3906 117.969 31.5391 117.219 31.6797L115.719 31.9609C114.312 32.2109 113.305 32.5156 112.695 32.875C111.664 33.4844 111.148 34.4297 111.148 35.7109C111.148 36.8516 111.461 37.6797 112.086 38.1953C112.727 38.6953 113.5 38.9453 114.406 38.9453C115.844 38.9453 117.164 38.5234 118.367 37.6797C119.586 36.8359 120.219 35.2969 120.266 33.0625V30.5781ZM116.211 27.4609C117.445 27.3047 118.328 27.1094 118.859 26.875C119.812 26.4688 120.289 25.8359 120.289 24.9766C120.289 23.9297 119.922 23.2109 119.188 22.8203C118.469 22.4141 117.406 22.2109 116 22.2109C114.422 22.2109 113.305 22.6016 112.648 23.3828C112.18 23.9609 111.867 24.7422 111.711 25.7266H105.266C105.406 23.4922 106.031 21.6562 107.141 20.2188C108.906 17.9688 111.938 16.8438 116.234 16.8438C119.031 16.8438 121.516 17.3984 123.688 18.5078C125.859 19.6172 126.945 21.7109 126.945 24.7891V36.5078C126.945 37.3203 126.961 38.3047 126.992 39.4609C127.039 40.3359 127.172 40.9297 127.391 41.2422C127.609 41.5547 127.938 41.8125 128.375 42.0156V43H121.109C120.906 42.4844 120.766 42 120.688 41.5469C120.609 41.0938 120.547 40.5781 120.5 40C119.578 41 118.516 41.8516 117.312 42.5547C115.875 43.3828 114.25 43.7969 112.438 43.7969C110.125 43.7969 108.211 43.1406 106.695 41.8281C105.195 40.5 104.445 38.625 104.445 36.2031C104.445 33.0625 105.656 30.7891 108.078 29.3828C109.406 28.6172 111.359 28.0703 113.938 27.7422L116.211 27.4609Z" fill="white"/>
<path d="M147.055 16.8438C149.695 16.8438 151.852 17.5391 153.523 18.9297C155.211 20.3047 156.055 22.5938 156.055 25.7969V43H149.211V27.4609C149.211 26.1172 149.031 25.0859 148.672 24.3672C148.016 23.0547 146.766 22.3984 144.922 22.3984C142.656 22.3984 141.102 23.3594 140.258 25.2812C139.82 26.2969 139.602 27.5938 139.602 29.1719V43H132.945V17.5H139.391V21.2266C140.25 19.9141 141.062 18.9688 141.828 18.3906C143.203 17.3594 144.945 16.8438 147.055 16.8438Z" fill="white"/>
<path d="M176.047 16.8906C179.406 16.8906 182.031 18.1016 183.922 20.5234C185.828 22.9453 186.781 26.0703 186.781 29.8984C186.781 33.8672 185.844 37.1562 183.969 39.7656C182.094 42.375 179.477 43.6797 176.117 43.6797C174.008 43.6797 172.312 43.2578 171.031 42.4141C170.266 41.9141 169.438 41.0391 168.547 39.7891V43H162.008V8.5H168.664V20.7812C169.508 19.5938 170.438 18.6875 171.453 18.0625C172.656 17.2812 174.188 16.8906 176.047 16.8906ZM174.336 38.1719C176.055 38.1719 177.391 37.4766 178.344 36.0859C179.297 34.6953 179.773 32.8672 179.773 30.6016C179.773 28.7891 179.539 27.2891 179.07 26.1016C178.18 23.8516 176.539 22.7266 174.148 22.7266C171.727 22.7266 170.062 23.8281 169.156 26.0312C168.688 27.2031 168.453 28.7188 168.453 30.5781C168.453 32.7656 168.938 34.5781 169.906 36.0156C170.875 37.4531 172.352 38.1719 174.336 38.1719Z" fill="white"/>
<path d="M205.672 30.5781C205.25 30.8438 204.82 31.0625 204.383 31.2344C203.961 31.3906 203.375 31.5391 202.625 31.6797L201.125 31.9609C199.719 32.2109 198.711 32.5156 198.102 32.875C197.07 33.4844 196.555 34.4297 196.555 35.7109C196.555 36.8516 196.867 37.6797 197.492 38.1953C198.133 38.6953 198.906 38.9453 199.812 38.9453C201.25 38.9453 202.57 38.5234 203.773 37.6797C204.992 36.8359 205.625 35.2969 205.672 33.0625V30.5781ZM201.617 27.4609C202.852 27.3047 203.734 27.1094 204.266 26.875C205.219 26.4688 205.695 25.8359 205.695 24.9766C205.695 23.9297 205.328 23.2109 204.594 22.8203C203.875 22.4141 202.812 22.2109 201.406 22.2109C199.828 22.2109 198.711 22.6016 198.055 23.3828C197.586 23.9609 197.273 24.7422 197.117 25.7266H190.672C190.812 23.4922 191.438 21.6562 192.547 20.2188C194.312 17.9688 197.344 16.8438 201.641 16.8438C204.438 16.8438 206.922 17.3984 209.094 18.5078C211.266 19.6172 212.352 21.7109 212.352 24.7891V36.5078C212.352 37.3203 212.367 38.3047 212.398 39.4609C212.445 40.3359 212.578 40.9297 212.797 41.2422C213.016 41.5547 213.344 41.8125 213.781 42.0156V43H206.516C206.312 42.4844 206.172 42 206.094 41.5469C206.016 41.0938 205.953 40.5781 205.906 40C204.984 41 203.922 41.8516 202.719 42.5547C201.281 43.3828 199.656 43.7969 197.844 43.7969C195.531 43.7969 193.617 43.1406 192.102 41.8281C190.602 40.5 189.852 38.625 189.852 36.2031C189.852 33.0625 191.062 30.7891 193.484 29.3828C194.812 28.6172 196.766 28.0703 199.344 27.7422L201.617 27.4609Z" fill="white"/>
<path d="M232.461 16.8438C235.102 16.8438 237.258 17.5391 238.93 18.9297C240.617 20.3047 241.461 22.5938 241.461 25.7969V43H234.617V27.4609C234.617 26.1172 234.438 25.0859 234.078 24.3672C233.422 23.0547 232.172 22.3984 230.328 22.3984C228.062 22.3984 226.508 23.3594 225.664 25.2812C225.227 26.2969 225.008 27.5938 225.008 29.1719V43H218.352V17.5H224.797V21.2266C225.656 19.9141 226.469 18.9688 227.234 18.3906C228.609 17.3594 230.352 16.8438 232.461 16.8438Z" fill="white"/>
<path d="M247.578 8.57031H254.141V27.1797L262.461 17.5703H270.734L261.805 27.3438L271.086 43H263.023L256.906 32.0781L254.141 34.9609V43H247.578V8.57031Z" fill="white"/>
</svg>
