<svg width="155" height="45" viewBox="0 0 155 45" fill="none" xmlns="http://www.w3.org/2000/svg">
<path d="M84.937 35.3858C84.937 33.8183 85.3532 32.6101 86.1856 31.7614C86.9095 31.0223 87.8304 30.6528 88.9483 30.6528C90.4443 30.6528 91.5381 31.1482 92.2297 32.1391C92.6118 32.6954 92.8168 33.2538 92.845 33.8142H90.9871C90.8665 33.3837 90.7117 33.0589 90.5227 32.8396C90.1849 32.4497 89.6842 32.2548 89.0207 32.2548C88.3451 32.2548 87.8123 32.5309 87.4222 33.0832C87.0321 33.6315 86.8371 34.4091 86.8371 35.4162C86.8371 36.4233 87.0422 37.1787 87.4524 37.6822C87.8666 38.1817 88.3914 38.4315 89.0267 38.4315C89.6782 38.4315 90.1748 38.2162 90.5166 37.7858C90.7056 37.5543 90.8625 37.2071 90.9871 36.7442H92.8269C92.666 37.7228 92.2539 38.5188 91.5903 39.132C90.9308 39.7452 90.0843 40.0518 89.0509 40.0518C87.7721 40.0518 86.7667 39.6376 86.0348 38.8091C85.303 37.9766 84.937 36.8355 84.937 35.3858Z" fill="#AF00DB"/>
<path d="M97.0614 38.5777C97.564 38.5777 97.9501 38.3969 98.2195 38.0355C98.489 37.6741 98.6237 37.1604 98.6237 36.4944C98.6237 35.8284 98.489 35.3167 98.2195 34.9594C97.9501 34.598 97.564 34.4172 97.0614 34.4172C96.5587 34.4172 96.1707 34.598 95.8972 34.9594C95.6278 35.3167 95.4931 35.8284 95.4931 36.4944C95.4931 37.1604 95.6278 37.6741 95.8972 38.0355C96.1707 38.3969 96.5587 38.5777 97.0614 38.5777ZM100.427 36.4944C100.427 37.469 100.15 38.3035 99.5948 38.998C99.0399 39.6883 98.1974 40.0335 97.0674 40.0335C95.9374 40.0335 95.0949 39.6883 94.54 38.998C93.985 38.3035 93.7076 37.469 93.7076 36.4944C93.7076 35.536 93.985 34.7056 94.54 34.003C95.0949 33.3005 95.9374 32.9492 97.0674 32.9492C98.1974 32.9492 99.0399 33.3005 99.5948 34.003C100.15 34.7056 100.427 35.536 100.427 36.4944Z" fill="#AF00DB"/>
<path d="M104.613 38.5777C105.116 38.5777 105.502 38.3969 105.772 38.0355C106.041 37.6741 106.176 37.1604 106.176 36.4944C106.176 35.8284 106.041 35.3167 105.772 34.9594C105.502 34.598 105.116 34.4172 104.613 34.4172C104.111 34.4172 103.723 34.598 103.449 34.9594C103.18 35.3167 103.045 35.8284 103.045 36.4944C103.045 37.1604 103.18 37.6741 103.449 38.0355C103.723 38.3969 104.111 38.5777 104.613 38.5777ZM107.979 36.4944C107.979 37.469 107.702 38.3035 107.147 38.998C106.592 39.6883 105.75 40.0335 104.62 40.0335C103.49 40.0335 102.647 39.6883 102.092 38.998C101.537 38.3035 101.26 37.469 101.26 36.4944C101.26 35.536 101.537 34.7056 102.092 34.003C102.647 33.3005 103.49 32.9492 104.62 32.9492C105.75 32.9492 106.592 33.3005 107.147 34.003C107.702 34.7056 107.979 35.536 107.979 36.4944Z" fill="#AF00DB"/>
<path d="M110.971 39.802H109.252V30.8233H110.971V39.802Z" fill="#AF00DB"/>
<path d="M117.184 36.4822C117.184 35.9705 117.068 35.5178 116.834 35.1238C116.605 34.7299 116.231 34.533 115.712 34.533C115.089 34.533 114.661 34.8315 114.428 35.4284C114.307 35.7452 114.247 36.1472 114.247 36.6345C114.247 37.4061 114.45 37.9482 114.856 38.2609C115.097 38.4436 115.383 38.535 115.712 38.535C116.191 38.535 116.555 38.3482 116.804 37.9746C117.058 37.601 117.184 37.1035 117.184 36.4822ZM116.207 33.0162C116.975 33.0162 117.625 33.3025 118.155 33.8751C118.69 34.4477 118.958 35.2883 118.958 36.3969C118.958 37.5665 118.696 38.4579 118.173 39.0711C117.655 39.6843 116.985 39.9909 116.165 39.9909C115.642 39.9909 115.208 39.8589 114.862 39.5949C114.673 39.4487 114.488 39.2355 114.307 38.9553V42.4152H112.606V33.1624H114.253V34.1431C114.438 33.8548 114.635 33.6274 114.844 33.4609C115.226 33.1645 115.68 33.0162 116.207 33.0162Z" fill="#AF00DB"/>
<path d="M121.962 39.802H120.242V30.8233H121.962V39.802Z" fill="#AF00DB"/>
<path d="M125.412 32.3705H123.669V30.7685H125.412V32.3705ZM123.669 33.1624H125.412V39.802H123.669V33.1624Z" fill="#AF00DB"/>
<path d="M130.708 36.5736C130.599 36.6426 130.489 36.6995 130.376 36.7442C130.268 36.7848 130.117 36.8233 129.924 36.8599L129.538 36.933C129.176 36.998 128.917 37.0771 128.76 37.1705C128.494 37.3289 128.362 37.5746 128.362 37.9076C128.362 38.2041 128.442 38.4193 128.603 38.5533C128.768 38.6832 128.967 38.7482 129.2 38.7482C129.57 38.7482 129.91 38.6386 130.219 38.4193C130.533 38.2 130.696 37.8 130.708 37.2193V36.5736ZM129.664 35.7634C129.982 35.7228 130.209 35.6721 130.346 35.6112C130.591 35.5056 130.714 35.3411 130.714 35.1178C130.714 34.8457 130.62 34.6589 130.431 34.5573C130.246 34.4518 129.972 34.399 129.61 34.399C129.204 34.399 128.917 34.5005 128.748 34.7035C128.627 34.8538 128.547 35.0568 128.506 35.3127H126.848C126.884 34.732 127.045 34.2548 127.33 33.8812C127.784 33.2964 128.565 33.004 129.671 33.004C130.39 33.004 131.03 33.1482 131.589 33.4365C132.148 33.7249 132.427 34.269 132.427 35.069V38.1147C132.427 38.3259 132.431 38.5817 132.439 38.8822C132.451 39.1096 132.485 39.264 132.542 39.3452C132.598 39.4264 132.682 39.4934 132.795 39.5462V39.802H130.925C130.873 39.668 130.837 39.5421 130.817 39.4244C130.796 39.3066 130.78 39.1726 130.768 39.0223C130.531 39.2822 130.258 39.5035 129.948 39.6863C129.578 39.9015 129.16 40.0091 128.693 40.0091C128.098 40.0091 127.606 39.8386 127.215 39.4975C126.829 39.1523 126.636 38.665 126.636 38.0355C126.636 37.2193 126.948 36.6284 127.571 36.2629C127.913 36.0639 128.416 35.9218 129.079 35.8365L129.664 35.7634Z" fill="#AF00DB"/>
<path d="M137.603 33.004C138.282 33.004 138.837 33.1848 139.267 33.5462C139.702 33.9035 139.919 34.4985 139.919 35.331V39.802H138.158V35.7634C138.158 35.4142 138.111 35.1462 138.019 34.9594C137.85 34.6183 137.528 34.4477 137.054 34.4477C136.471 34.4477 136.07 34.6974 135.853 35.1969C135.741 35.4609 135.684 35.798 135.684 36.2081V39.802H133.971V33.1746H135.63V34.1431C135.851 33.802 136.06 33.5563 136.257 33.4061C136.611 33.1381 137.06 33.004 137.603 33.004Z" fill="#AF00DB"/>
<path d="M145.438 35.5441C145.406 35.2964 145.324 35.0731 145.191 34.8741C144.998 34.6061 144.698 34.4721 144.292 34.4721C143.713 34.4721 143.317 34.7624 143.104 35.3431C142.991 35.6518 142.935 36.0619 142.935 36.5736C142.935 37.0609 142.991 37.4528 143.104 37.7492C143.309 38.3015 143.695 38.5777 144.262 38.5777C144.664 38.5777 144.95 38.468 145.119 38.2487C145.287 38.0294 145.39 37.7452 145.426 37.3959H147.181C147.141 37.9238 146.952 38.4233 146.614 38.8944C146.076 39.6538 145.277 40.0335 144.22 40.0335C143.162 40.0335 142.384 39.7167 141.885 39.0832C141.387 38.4497 141.137 37.6274 141.137 36.6162C141.137 35.4751 141.413 34.5878 141.964 33.9543C142.515 33.3208 143.275 33.004 144.244 33.004C145.068 33.004 145.742 33.1908 146.265 33.5645C146.791 33.9381 147.103 34.598 147.2 35.5441H145.438Z" fill="#AF00DB"/>
<path d="M150.982 34.4172C150.584 34.4172 150.274 34.5431 150.053 34.7949C149.836 35.0467 149.699 35.3878 149.643 35.8183H152.315C152.287 35.3594 152.148 35.0122 151.899 34.7766C151.653 34.537 151.348 34.4172 150.982 34.4172ZM150.982 32.9858C151.529 32.9858 152.021 33.0893 152.459 33.2964C152.898 33.5035 153.26 33.8304 153.545 34.2771C153.803 34.6711 153.97 35.1279 154.046 35.6477C154.09 35.9523 154.108 36.3909 154.1 36.9634H149.6C149.624 37.6294 149.832 38.0964 150.222 38.3645C150.459 38.531 150.744 38.6142 151.078 38.6142C151.432 38.6142 151.72 38.5127 151.941 38.3096C152.061 38.2 152.168 38.0477 152.26 37.8528H154.016C153.972 38.2467 153.768 38.6467 153.407 39.0528C152.844 39.6985 152.055 40.0213 151.042 40.0213C150.206 40.0213 149.468 39.7492 148.828 39.2051C148.189 38.6609 147.869 37.7756 147.869 36.5492C147.869 35.4 148.157 34.5188 148.732 33.9056C149.311 33.2924 150.061 32.9858 150.982 32.9858Z" fill="#AF00DB"/>
<path fill-rule="evenodd" clip-rule="evenodd" d="M85.538 41.7651C85.7807 41.4169 86.2617 41.3301 86.6123 41.5711C87.6344 42.2737 89.4975 43.1426 91.6797 43.395C93.8439 43.6452 96.295 43.2882 98.5779 41.5881C98.919 41.3341 99.403 41.4027 99.6588 41.7415C99.9147 42.0802 99.8455 42.5608 99.5044 42.8148C96.8458 44.7948 93.978 45.2045 91.5011 44.9181C89.0421 44.6337 86.9417 43.6626 85.7333 42.8318C85.3827 42.5908 85.2953 42.1132 85.538 41.7651Z" fill="#AF00DB"/>
<path d="M4.36664 18.5126C4.49066 19.4161 4.73426 20.0915 5.09745 20.5387C5.76182 21.3528 6.9001 21.7598 8.51231 21.7598C9.47786 21.7598 10.2618 21.6524 10.8642 21.4377C12.0069 21.0263 12.5783 20.2614 12.5783 19.1432C12.5783 18.4902 12.2948 17.9848 11.7279 17.627C11.1609 17.2781 10.2707 16.9695 9.05709 16.7011L6.98426 16.2315C4.94686 15.7663 3.53839 15.2609 2.75886 14.7153C1.43898 13.8028 0.779042 12.376 0.779042 10.4349C0.779042 8.66367 1.41684 7.19214 2.69243 6.02029C3.96802 4.84844 5.84154 4.26251 8.313 4.26251C10.377 4.26251 12.1353 4.81713 13.5881 5.92636C15.0497 7.02665 15.816 8.62788 15.8868 10.7301H11.9537C11.8829 9.54032 11.3691 8.69497 10.4124 8.19403C9.77461 7.86305 8.9818 7.69756 8.03396 7.69756C6.97983 7.69756 6.13829 7.91225 5.50936 8.34163C4.88042 8.77101 4.56595 9.37035 4.56595 10.1397C4.56595 10.8464 4.87599 11.3741 5.49607 11.723C5.89469 11.9556 6.74508 12.2284 8.04725 12.5415L11.4222 13.36C12.9016 13.7178 14.0177 14.1964 14.7707 14.7958C15.94 15.7261 16.5246 17.0724 16.5246 18.8346C16.5246 20.6416 15.8381 22.1444 14.4651 23.3431C13.1009 24.5329 11.1698 25.1277 8.67176 25.1277C6.12058 25.1277 4.11418 24.5418 2.65257 23.37C1.19095 22.1892 0.460144 20.57 0.460144 18.5126H4.36664Z" fill="#AF00DB"/>
<path d="M27.2343 17.5062C26.9951 17.6583 26.7515 17.7835 26.5035 17.8819C26.2643 17.9714 25.9321 18.0564 25.5069 18.1369L24.6565 18.2979C23.8593 18.441 23.2879 18.6155 22.9424 18.8212C22.3578 19.1701 22.0655 19.7113 22.0655 20.4448C22.0655 21.0978 22.2426 21.5719 22.597 21.8671C22.9601 22.1534 23.3986 22.2965 23.9124 22.2965C24.7274 22.2965 25.4759 22.055 26.158 21.5719C26.8489 21.0889 27.2077 20.2077 27.2343 18.9286V17.5062ZM24.9355 15.7216C25.6353 15.6322 26.1358 15.5203 26.437 15.3862C26.9774 15.1536 27.2475 14.7913 27.2475 14.2993C27.2475 13.6999 27.0394 13.2885 26.623 13.0648C26.2156 12.8322 25.6132 12.7159 24.816 12.7159C23.9213 12.7159 23.2879 12.9396 22.9159 13.3869C22.6501 13.7178 22.4729 14.1651 22.3844 14.7287H18.7303C18.81 13.4495 19.1644 12.3984 19.7933 11.5754C20.7943 10.2873 22.5128 9.64319 24.9488 9.64319C26.5345 9.64319 27.9429 9.96075 29.1742 10.5959C30.4055 11.231 31.0212 12.4297 31.0212 14.1919V20.901C31.0212 21.3662 31.03 21.9297 31.0477 22.5917C31.0743 23.0926 31.1496 23.4326 31.2736 23.6115C31.3976 23.7904 31.5837 23.938 31.8317 24.0543V24.6178H27.7126C27.5974 24.3226 27.5177 24.0453 27.4734 23.7859C27.4291 23.5265 27.3937 23.2313 27.3671 22.9003C26.8445 23.4728 26.2421 23.9604 25.56 24.3629C24.7451 24.837 23.8238 25.0741 22.7963 25.0741C21.4852 25.0741 20.4001 24.6984 19.5409 23.9469C18.6905 23.1866 18.2653 22.1131 18.2653 20.7266C18.2653 18.9286 18.9518 17.627 20.3248 16.8219C21.0778 16.3836 22.185 16.0705 23.6467 15.8826L24.9355 15.7216Z" fill="#AF00DB"/>
<path d="M42.4218 9.64319C43.9188 9.64319 45.1412 10.0413 46.0891 10.8374C47.0458 11.6246 47.5241 12.9351 47.5241 14.7689V24.6178H43.6442V15.7216C43.6442 14.9523 43.5423 14.3619 43.3386 13.9504C42.9665 13.199 42.2579 12.8233 41.2126 12.8233C39.9282 12.8233 39.0468 13.3734 38.5684 14.4737C38.3204 15.0552 38.1964 15.7976 38.1964 16.7011V24.6178H34.4227V10.0189H38.0768V12.1524C38.564 11.401 39.0246 10.8598 39.4587 10.5288C40.2382 9.93839 41.2259 9.64319 42.4218 9.64319Z" fill="#AF00DB"/>
<path d="M49.5438 12.8501V10.1262H51.5635V6.04713H55.3105V10.1262H57.6624V12.8501H55.3105V20.579C55.3105 21.1783 55.3858 21.554 55.5364 21.7061C55.687 21.8492 56.1476 21.9208 56.9183 21.9208C57.0335 21.9208 57.1531 21.9208 57.2771 21.9208C57.4099 21.9119 57.5384 21.9029 57.6624 21.894V24.752L55.8686 24.8191C54.0792 24.8817 52.8568 24.5686 52.2013 23.8798C51.7761 23.4415 51.5635 22.7661 51.5635 21.8537V12.8501H49.5438Z" fill="#AF00DB"/>
<path d="M68.0797 17.5062C67.8406 17.6583 67.597 17.7835 67.3489 17.8819C67.1097 17.9714 66.7776 18.0564 66.3524 18.1369L65.502 18.2979C64.7047 18.441 64.1334 18.6155 63.7879 18.8212C63.2033 19.1701 62.9109 19.7113 62.9109 20.4448C62.9109 21.0978 63.0881 21.5719 63.4424 21.8671C63.8056 22.1534 64.2441 22.2965 64.7579 22.2965C65.5728 22.2965 66.3214 22.055 67.0034 21.5719C67.6944 21.0889 68.0532 20.2077 68.0797 18.9286V17.5062ZM65.781 15.7216C66.4808 15.6322 66.9813 15.5203 67.2825 15.3862C67.8228 15.1536 68.093 14.7913 68.093 14.2993C68.093 13.6999 67.8848 13.2885 67.4685 13.0648C67.061 12.8322 66.4587 12.7159 65.6614 12.7159C64.7667 12.7159 64.1334 12.9396 63.7613 13.3869C63.4956 13.7178 63.3184 14.1651 63.2298 14.7287H59.5758C59.6555 13.4495 60.0098 12.3984 60.6388 11.5754C61.6398 10.2873 63.3583 9.64319 65.7943 9.64319C67.3799 9.64319 68.7884 9.96075 70.0197 10.5959C71.251 11.231 71.8666 12.4297 71.8666 14.1919V20.901C71.8666 21.3662 71.8755 21.9297 71.8932 22.5917C71.9198 23.0926 71.9951 23.4326 72.1191 23.6115C72.2431 23.7904 72.4291 23.938 72.6772 24.0543V24.6178H68.5581C68.4429 24.3226 68.3632 24.0453 68.3189 23.7859C68.2746 23.5265 68.2392 23.2313 68.2126 22.9003C67.69 23.4728 67.0876 23.9604 66.4055 24.3629C65.5906 24.837 64.6693 25.0741 63.6417 25.0741C62.3307 25.0741 61.2456 24.6984 60.3863 23.9469C59.5359 23.1866 59.1107 22.1131 59.1107 20.7266C59.1107 18.9286 59.7972 17.627 61.1703 16.8219C61.9232 16.3836 63.0305 16.0705 64.4921 15.8826L65.781 15.7216Z" fill="#AF00DB"/>
<path d="M83.2672 9.64319C84.7643 9.64319 85.9867 10.0413 86.9345 10.8374C87.8912 11.6246 88.3696 12.9351 88.3696 14.7689V24.6178H84.4897V15.7216C84.4897 14.9523 84.3878 14.3619 84.1841 13.9504C83.812 13.199 83.1033 12.8233 82.0581 12.8233C80.7736 12.8233 79.8922 13.3734 79.4139 14.4737C79.1658 15.0552 79.0418 15.7976 79.0418 16.7011V24.6178H75.2682V10.0189H78.9222V12.1524C79.4095 11.401 79.8701 10.8598 80.3041 10.5288C81.0837 9.93839 82.0714 9.64319 83.2672 9.64319Z" fill="#AF00DB"/>
<path d="M99.7037 9.67003C101.608 9.67003 103.096 10.3633 104.168 11.7498C105.249 13.1364 105.789 14.9255 105.789 17.1171C105.789 19.3892 105.258 21.2723 104.195 22.7661C103.132 24.26 101.648 25.007 99.7436 25.007C98.5477 25.007 97.5866 24.7654 96.8602 24.2824C96.4262 23.9961 95.9567 23.4952 95.4518 22.7796V24.6178H91.7446V4.86633H95.5182V11.8974C95.9966 11.2176 96.5236 10.6988 97.0994 10.3409C97.7815 9.89366 98.6496 9.67003 99.7037 9.67003ZM98.7338 21.8537C99.7082 21.8537 100.466 21.4556 101.006 20.6595C101.546 19.8633 101.816 18.8167 101.816 17.5196C101.816 16.482 101.684 15.6232 101.418 14.9434C100.913 13.6552 99.9828 13.0111 98.6275 13.0111C97.2544 13.0111 96.311 13.6418 95.7972 14.9031C95.5315 15.574 95.3986 16.4417 95.3986 17.5062C95.3986 18.7586 95.6732 19.7963 96.2224 20.6192C96.7717 21.4422 97.6088 21.8537 98.7338 21.8537Z" fill="#AF00DB"/>
<path d="M116.499 17.5062C116.26 17.6583 116.016 17.7835 115.768 17.8819C115.529 17.9714 115.197 18.0564 114.772 18.1369L113.921 18.2979C113.124 18.441 112.553 18.6155 112.207 18.8212C111.623 19.1701 111.33 19.7113 111.33 20.4448C111.33 21.0978 111.507 21.5719 111.862 21.8671C112.225 22.1534 112.663 22.2965 113.177 22.2965C113.992 22.2965 114.741 22.055 115.423 21.5719C116.114 21.0889 116.472 20.2077 116.499 18.9286V17.5062ZM114.2 15.7216C114.9 15.6322 115.401 15.5203 115.702 15.3862C116.242 15.1536 116.512 14.7913 116.512 14.2993C116.512 13.6999 116.304 13.2885 115.888 13.0648C115.48 12.8322 114.878 12.7159 114.081 12.7159C113.186 12.7159 112.553 12.9396 112.181 13.3869C111.915 13.7178 111.738 14.1651 111.649 14.7287H107.995C108.075 13.4495 108.429 12.3984 109.058 11.5754C110.059 10.2873 111.778 9.64319 114.214 9.64319C115.799 9.64319 117.208 9.96075 118.439 10.5959C119.67 11.231 120.286 12.4297 120.286 14.1919V20.901C120.286 21.3662 120.295 21.9297 120.312 22.5917C120.339 23.0926 120.414 23.4326 120.538 23.6115C120.662 23.7904 120.848 23.938 121.096 24.0543V24.6178H116.977C116.862 24.3226 116.782 24.0453 116.738 23.7859C116.694 23.5265 116.658 23.2313 116.632 22.9003C116.109 23.4728 115.507 23.9604 114.825 24.3629C114.01 24.837 113.089 25.0741 112.061 25.0741C110.75 25.0741 109.665 24.6984 108.806 23.9469C107.955 23.1866 107.53 22.1131 107.53 20.7266C107.53 18.9286 108.217 17.627 109.59 16.8219C110.343 16.3836 111.45 16.0705 112.911 15.8826L114.2 15.7216Z" fill="#AF00DB"/>
<path d="M131.687 9.64319C133.184 9.64319 134.406 10.0413 135.354 10.8374C136.311 11.6246 136.789 12.9351 136.789 14.7689V24.6178H132.909V15.7216C132.909 14.9523 132.807 14.3619 132.603 13.9504C132.231 13.199 131.523 12.8233 130.477 12.8233C129.193 12.8233 128.312 13.3734 127.833 14.4737C127.585 15.0552 127.461 15.7976 127.461 16.7011V24.6178H123.688V10.0189H127.342V12.1524C127.829 11.401 128.289 10.8598 128.723 10.5288C129.503 9.93839 130.491 9.64319 131.687 9.64319Z" fill="#AF00DB"/>
<path d="M140.257 4.90658H143.977V15.5606L148.694 10.0592H153.385L148.322 15.6545L153.584 24.6178H149.013L145.545 18.365L143.977 20.0154V24.6178H140.257V4.90658Z" fill="#AF00DB"/>
</svg>
